<svg width="375" height="199" viewBox="0 0 375 199" fill="none" xmlns="http://www.w3.org/2000/svg">
<path fill-rule="evenodd" clip-rule="evenodd" d="M86.9502 155.209L86.9902 121.799H70.9702V154.849C76.2602 155.629 81.6502 155.779 86.9502 155.209Z" fill="#57BED5"/>
<path fill-rule="evenodd" clip-rule="evenodd" d="M107.04 148.929V140.509L107.02 105.339L91.21 105.419V154.569C95.97 153.689 100.62 152.189 104.99 149.999C105.69 149.669 106.37 149.309 107.04 148.929Z" fill="#57BED5"/>
<path fill-rule="evenodd" clip-rule="evenodd" d="M127.24 126.979L127.22 85.0088L111.44 85.2488L111.25 146.289C118.31 141.319 123.61 134.689 127.24 126.979Z" fill="#57BED5"/>
<path fill-rule="evenodd" clip-rule="evenodd" d="M320.86 32.6887C299.58 11.6787 272.87 -0.371275 242.66 0.00872523C211.62 0.398725 188.88 14.1487 166.74 36.1387C177.05 49.0087 182.46 61.6787 184.81 76.9687C198.44 27.7287 256.57 21.0887 293.85 54.2987L320.86 32.6887Z" fill="#424242"/>
<path fill-rule="evenodd" clip-rule="evenodd" d="M24.46 136.359L0.76001 161.209C22.72 185.049 51.05 198.899 83.4 198.489C114.42 198.099 137.14 184.369 159.26 162.409C147.9 144.459 144.28 133.669 141.99 118.589C129.03 174.169 61.49 178.909 24.46 136.359Z" fill="#424242"/>
<path fill-rule="evenodd" clip-rule="evenodd" d="M176.91 173.459C193.89 188.259 217.13 196.349 240.69 196.829C296.09 197.979 343.01 157.249 343.75 101.079C343.85 93.9787 343.19 86.7987 341.77 79.6387L274.31 118.029L308.5 114.979C300.62 159.839 246.23 173.979 210.92 154.109L176.91 173.459ZM191.29 136.349L163.69 158.439C149.09 135.309 148.8 127.879 144.88 93.3787C144.18 84.5587 142.09 76.9287 138.61 70.0587C123.74 40.6687 90.94 28.8687 59.47 38.8687C42.22 44.3487 35.5 52.7487 24.47 61.7687L0 38.3587C2.02 34.7987 12.4 25.7187 16.12 22.8287C56.37 -8.4513 118.31 -6.04131 154.15 30.7887C174.66 51.8587 180.38 69.9687 180.42 98.7087C180.45 114.049 184.56 126.579 191.29 136.349Z" fill="#959596"/>
<path fill-rule="evenodd" clip-rule="evenodd" d="M137.26 188.239L349 67.7588L353.53 75.9188L374.81 22.2488L320.49 29.0488L327.06 36.3788L137.26 188.239Z" fill="#57BED5"/>
</svg>
