<svg width="1136" height="199" viewBox="0 0 1136 199" fill="none" xmlns="http://www.w3.org/2000/svg">
<path fill-rule="evenodd" clip-rule="evenodd" d="M86.9502 155.209L86.9902 121.799H70.9702V154.849C76.2602 155.629 81.6502 155.779 86.9502 155.209Z" fill="#57BED5"/>
<path fill-rule="evenodd" clip-rule="evenodd" d="M107.04 148.929V140.509L107.02 105.339L91.21 105.419V154.569C95.97 153.689 100.62 152.189 104.99 149.999C105.69 149.669 106.37 149.309 107.04 148.929Z" fill="#57BED5"/>
<path fill-rule="evenodd" clip-rule="evenodd" d="M127.24 126.979L127.22 85.0088L111.44 85.2488L111.25 146.289C118.31 141.319 123.61 134.689 127.24 126.979Z" fill="#57BED5"/>
<path fill-rule="evenodd" clip-rule="evenodd" d="M320.86 32.6887C299.58 11.6787 272.87 -0.371275 242.66 0.00872523C211.62 0.398725 188.88 14.1487 166.74 36.1387C177.05 49.0087 182.46 61.6787 184.81 76.9687C198.44 27.7287 256.57 21.0887 293.85 54.2987L320.86 32.6887Z" fill="#424242"/>
<path fill-rule="evenodd" clip-rule="evenodd" d="M24.4598 136.359L0.759766 161.209C22.7198 185.049 51.0498 198.899 83.3997 198.489C114.42 198.099 137.14 184.369 159.26 162.409C147.9 144.459 144.28 133.669 141.99 118.589C129.03 174.169 61.4898 178.909 24.4598 136.359Z" fill="#424242"/>
<path fill-rule="evenodd" clip-rule="evenodd" d="M176.91 173.459C193.89 188.259 217.13 196.349 240.69 196.829C296.09 197.979 343.01 157.249 343.75 101.079C343.85 93.9787 343.19 86.7987 341.77 79.6387L274.31 118.029L308.5 114.979C300.62 159.839 246.23 173.979 210.92 154.109L176.91 173.459ZM191.29 136.349L163.69 158.439C149.09 135.309 148.8 127.879 144.88 93.3787C144.18 84.5587 142.09 76.9287 138.61 70.0587C123.74 40.6687 90.94 28.8687 59.47 38.8687C42.22 44.3487 35.5 52.7487 24.47 61.7687L0 38.3587C2.02 34.7987 12.4 25.7187 16.12 22.8287C56.37 -8.4513 118.31 -6.04131 154.15 30.7887C174.66 51.8587 180.38 69.9687 180.42 98.7087C180.45 114.049 184.56 126.579 191.29 136.349Z" fill="#959596"/>
<path fill-rule="evenodd" clip-rule="evenodd" d="M137.26 188.239L349 67.7588L353.53 75.9188L374.81 22.2488L320.49 29.0488L327.06 36.3788L137.26 188.239Z" fill="#57BED5"/>
<path fill-rule="evenodd" clip-rule="evenodd" d="M485.79 57.2288H487.31C487.21 67.4088 487.87 78.4988 489.28 90.5188L487.92 90.6588C481.05 78.4688 475.46 70.0488 471.16 65.4188C466.86 60.7888 461.38 58.4788 454.71 58.4788C445.51 58.4788 438.38 62.4688 433.33 70.4388C428.28 78.4188 425.75 89.2388 425.75 102.899C425.75 116.559 428.63 127.059 434.4 134.389C440.16 141.729 448.05 145.389 458.06 145.389C466.05 145.389 472.67 142.919 477.93 137.969C483.19 133.009 486.73 126.549 488.54 118.569L490.82 118.709C489.1 128.059 485.08 135.789 478.76 141.889C472.44 147.979 463.67 151.029 452.45 151.029C438.7 151.029 427.66 146.859 419.32 138.509C410.98 130.159 406.81 118.789 406.81 104.409C406.81 90.0088 411.18 78.3688 419.93 69.4788C428.68 60.5788 440.23 56.1388 454.58 56.1388C459.13 56.1388 463.32 56.6888 467.17 57.7888C471.01 58.8888 474.09 60.0088 476.42 61.1588C478.75 62.3088 480.26 62.8888 480.97 62.8888C482.86 62.8688 484.48 60.9888 485.79 57.2288Z" fill="#424242"/>
<path fill-rule="evenodd" clip-rule="evenodd" d="M554.94 103.299C554.94 116.869 557.52 127.829 562.68 136.169C567.84 144.509 575.42 148.689 585.43 148.689C593.62 148.689 599.149 146.829 602.039 143.119C604.919 139.409 606.359 133.919 606.359 126.679C606.359 120.169 605.579 115.699 604.009 113.269C602.439 110.849 598.98 109.079 593.62 107.979V106.609C606.66 107.159 619.65 107.159 632.59 106.609V107.979C628.65 108.809 625.889 110.549 624.319 113.199C622.749 115.859 621.97 120.309 621.97 126.539C621.97 135.799 622.119 143.639 622.419 150.059H620.75C619.33 147.769 618.119 146.199 617.109 145.379C616.099 144.559 614.88 144.139 613.47 144.139C612.26 144.139 610.46 144.709 608.09 145.859C605.71 147.009 602.53 148.149 598.53 149.299C594.54 150.449 590.01 151.019 584.96 151.019C569.19 151.019 557.079 146.709 548.639 138.099C540.199 129.479 535.979 118.239 535.979 104.399C535.979 89.9087 540.609 78.2387 549.859 69.3887C559.109 60.5387 571.16 56.1188 586.03 56.1188C590.88 56.1188 595.359 56.6687 599.449 57.7687C603.539 58.8687 606.829 59.9887 609.299 61.1387C611.779 62.2887 613.469 62.8688 614.379 62.8688C616.299 62.8688 617.869 60.9888 619.079 57.2288H620.75C620.65 67.3188 621.259 78.1388 622.569 89.6888L621.21 89.8287C614.54 78.1787 608.819 70.0388 604.079 65.4188C599.319 60.7888 593.36 58.4788 586.19 58.4788C576.48 58.4788 568.849 62.4688 563.289 70.4388C557.719 78.4088 554.94 89.3688 554.94 103.299Z" fill="#424242"/>
<path fill-rule="evenodd" clip-rule="evenodd" d="M708.409 126.139C707.199 133.659 704.059 139.679 699.009 144.219C693.959 148.759 687.179 151.029 678.689 151.029C667.469 151.029 658.869 147.939 652.909 141.739C646.939 135.549 643.959 126.729 643.959 115.259C643.959 104.719 646.989 96.0289 653.059 89.1989C659.129 82.3689 667.419 78.9489 677.929 78.9489C687.429 78.9489 695.009 81.8389 700.679 87.6089C706.339 93.3889 709.169 101.179 709.169 110.999V113.059H662.159V114.989C662.159 136.269 669.489 146.899 684.149 146.899C689.609 146.899 694.329 145.049 698.329 141.329C702.319 137.609 704.929 132.549 706.139 126.129H708.409V126.139ZM677.769 81.0289C667.659 81.0289 662.459 91.0189 662.149 111.019H691.719C691.519 100.659 690.329 93.0689 688.149 88.2489C685.989 83.4289 682.529 81.0289 677.769 81.0289Z" fill="#424242"/>
<path fill-rule="evenodd" clip-rule="evenodd" d="M771.639 77.3187H772.699C772.499 85.4787 772.859 93.3587 773.769 100.969L772.699 101.109C767.849 93.5888 763.809 88.3288 760.569 85.3588C757.339 82.3788 753.339 80.8887 748.589 80.8887C744.249 80.8887 740.779 81.9888 738.199 84.1888C735.619 86.3888 734.329 89.1887 734.329 92.5787C734.329 94.3287 734.679 95.9087 735.389 97.3287C736.099 98.7487 736.879 99.8787 737.739 100.699C738.599 101.519 739.989 102.349 741.909 103.169C743.829 103.989 745.369 104.589 746.529 104.959C747.689 105.329 749.539 105.879 752.069 106.609C761.069 109.179 767.479 111.949 771.329 114.929C775.169 117.909 777.089 122.379 777.089 128.339C777.089 135.489 774.439 141.059 769.129 145.049C763.819 149.039 757.219 151.029 749.339 151.029C744.989 151.029 740.649 150.339 736.299 148.969C731.949 147.589 729.529 146.909 729.019 146.909C728.719 146.909 728.409 146.939 728.109 146.979C727.809 147.029 727.499 147.139 727.199 147.329C726.899 147.509 726.669 147.669 726.519 147.809C726.369 147.949 726.169 148.179 725.909 148.499C725.659 148.819 725.479 149.049 725.379 149.189C725.279 149.329 725.099 149.599 724.849 150.019C724.599 150.429 724.419 150.679 724.319 150.769H723.259C723.259 143.249 722.649 135.409 721.439 127.249L722.649 126.969C727.709 135.219 732.149 140.929 735.999 144.089C739.839 147.259 744.339 148.839 749.499 148.839C754.349 148.839 758.219 147.649 761.099 145.259C763.979 142.879 765.419 139.669 765.419 135.629C765.419 131.689 763.979 128.799 761.099 126.969C758.219 125.139 753.439 123.349 746.769 121.609C738.079 119.229 731.879 116.419 728.189 113.209C724.499 109.999 722.649 105.509 722.649 99.7388C722.649 93.3188 725.149 88.2488 730.159 84.5388C735.159 80.8188 741.409 78.9688 748.889 78.9688C752.529 78.9688 756.269 79.5187 760.109 80.6287C763.949 81.7287 766.169 82.2787 766.779 82.2787C767.889 82.2787 768.779 81.9088 769.429 81.1788C770.099 80.4288 770.839 79.1487 771.639 77.3187Z" fill="#424242"/>
<path fill-rule="evenodd" clip-rule="evenodd" d="M818.2 151.029C803.84 151.029 796.67 144.889 796.67 132.599C796.67 129.209 796.74 124.829 796.9 119.469C797.05 114.099 797.12 110.689 797.12 109.219L797.27 82.5389H785.89V81.0289C793.88 80.1989 799.97 77.7089 804.17 73.5289C808.36 69.3589 811.12 62.5889 812.43 53.2389H814.4L813.94 80.3389H836.99V82.5389H813.94C813.64 102.709 813.64 120.179 813.94 134.939C814.04 142.639 817.28 146.489 823.65 146.489C826.58 146.489 829.14 145.389 831.31 143.189C833.48 140.989 834.82 137.599 835.33 133.009H837.45C837.15 138.699 835.38 143.119 832.14 146.279C828.92 149.449 824.27 151.029 818.2 151.029Z" fill="#424242"/>
<path fill-rule="evenodd" clip-rule="evenodd" d="M845.04 149.799V148.699C848.98 147.879 851.61 146.609 852.92 144.919C854.24 143.219 854.99 140.129 855.19 135.629C855.39 127.559 855.5 120.779 855.5 115.279C855.5 110.969 855.39 104.689 855.19 96.4389C854.99 91.8489 854.21 88.4789 852.84 86.3289C851.47 84.1789 848.87 82.4988 845.03 81.3188V80.2189C854.13 80.4989 863.28 80.4989 872.48 80.2189C873.09 80.2189 873.34 80.5888 873.24 81.3188C872.43 88.0988 872.03 99.4289 872.03 115.289C872.03 124.919 872.13 131.749 872.33 135.779C872.53 140.279 873.29 143.349 874.6 144.989C875.91 146.649 878.54 147.879 882.49 148.709V149.809C870.06 149.339 857.58 149.339 845.04 149.799Z" fill="#424242"/>
<path fill-rule="evenodd" clip-rule="evenodd" d="M863.24 47.4689C866.58 47.4689 869.28 48.4589 871.35 50.4289C873.42 52.3989 874.46 54.8489 874.46 57.7889C874.46 60.6289 873.4 63.0189 871.27 64.9389C869.15 66.8589 866.47 67.8289 863.23 67.8289C859.89 67.8289 857.17 66.8489 855.04 64.8689C852.92 62.8989 851.85 60.4889 851.85 57.6589C851.85 54.8189 852.94 52.3989 855.11 50.4389C857.3 48.4489 860.01 47.4689 863.24 47.4689Z" fill="#57BED5"/>
<path fill-rule="evenodd" clip-rule="evenodd" d="M926.78 151.029C915.36 151.029 906.72 147.709 900.85 141.059C894.98 134.409 892.06 125.769 892.06 115.129C892.06 104.869 895.27 96.2689 901.69 89.3389C908.11 82.4089 916.73 78.9489 927.55 78.9489C938.98 78.9489 947.59 82.2289 953.41 88.7889C959.22 95.3489 962.13 103.939 962.13 114.579C962.13 124.849 958.95 133.489 952.58 140.509C946.19 147.519 937.6 151.029 926.78 151.029ZM910.25 114.719C910.25 126.549 911.59 135.209 914.27 140.709C916.95 146.209 921.17 148.959 926.93 148.959C938.15 148.959 943.77 137.639 943.77 114.989C943.77 103.259 942.45 94.6589 939.82 89.2089C937.19 83.7589 933.05 81.0189 927.38 81.0189C915.96 81.0289 910.25 92.2589 910.25 114.719Z" fill="#424242"/>
<path fill-rule="evenodd" clip-rule="evenodd" d="M1044.91 116.099C1044.91 121.329 1045.01 127.879 1045.21 135.769C1045.41 140.359 1046.14 143.449 1047.41 145.049C1048.67 146.659 1051.27 147.869 1055.22 148.699V149.799C1042.88 149.339 1030.5 149.339 1018.07 149.799V148.699C1022.01 147.879 1024.64 146.609 1025.95 144.919C1027.27 143.219 1027.98 140.129 1028.07 135.629C1028.27 131.689 1028.37 125.039 1028.37 115.689C1028.37 107.709 1028.22 101.109 1027.92 95.8788C1027.62 91.6588 1026.55 88.5889 1024.73 86.6589C1022.91 84.7289 1020.23 83.7689 1016.69 83.7689C1012.14 83.7689 1008.35 85.6489 1005.31 89.4089C1002.28 93.1689 1000.56 98.8089 1000.15 106.329C999.95 110.359 999.85 113.339 999.85 115.259C999.85 124.889 999.96 131.719 1000.15 135.749C1000.35 140.249 1001.11 143.319 1002.42 144.959C1003.74 146.619 1006.37 147.849 1010.31 148.679V149.779C997.77 149.319 985.24 149.319 972.7 149.779V148.679C976.64 147.859 979.29 146.589 980.66 144.899C982.03 143.199 982.76 140.109 982.86 135.609C983.07 131.579 983.16 124.799 983.16 115.259C983.16 106.819 983.06 100.549 982.86 96.4189C982.66 91.8289 981.88 88.4888 980.51 86.3788C979.14 84.2688 976.54 82.5789 972.7 81.2889V80.1889C981.59 80.4689 990.49 80.4689 999.39 80.1889C1000.1 80.1889 1000.35 80.5589 1000.15 81.2889C999.65 85.3189 999.39 90.5889 999.39 97.1089H999.69C1002.62 84.9989 1010.31 78.9489 1022.74 78.9489C1037.6 78.9489 1045.03 85.7389 1045.03 99.3089C1045.03 101.419 1045.01 104.279 1044.95 107.909C1044.94 111.539 1044.91 114.259 1044.91 116.099Z" fill="#424242"/>
<path fill-rule="evenodd" clip-rule="evenodd" d="M1085.86 151.029C1079.59 151.029 1074.46 149.509 1070.47 146.489C1066.48 143.459 1064.48 139.059 1064.48 133.289C1064.48 126.319 1068.19 121.049 1075.63 117.469C1083.06 113.889 1093.3 111.879 1106.34 111.419C1106.34 110.139 1106.34 108.279 1106.34 105.849C1106.34 103.419 1106.34 101.219 1106.34 99.2489C1106.34 97.2789 1106.34 95.4189 1106.34 93.6789C1106.04 85.3289 1101.69 81.1589 1093.3 81.1589C1089.36 81.1589 1086.02 81.8489 1083.29 83.2189C1080.56 84.5989 1079.2 86.2389 1079.2 88.1689C1079.2 89.5489 1080.13 91.1089 1082 92.8489C1083.87 94.5889 1084.81 96.4289 1084.81 98.3489C1084.81 100.549 1083.95 102.359 1082.23 103.789C1080.51 105.209 1078.38 105.919 1075.86 105.919C1073.03 105.919 1070.78 105.119 1069.11 103.509C1067.44 101.899 1066.61 99.7789 1066.61 97.1189C1066.61 92.1589 1069.39 87.9089 1074.95 84.3289C1080.51 80.7489 1087.39 78.9589 1095.57 78.9589C1104.57 78.9589 1111.47 80.7289 1116.27 84.2489C1121.08 87.7789 1123.48 92.9389 1123.48 99.7289C1123.48 102.389 1123.43 105.849 1123.33 110.109C1123.23 114.369 1123.18 117.609 1123.18 119.799C1122.98 127.599 1123.08 134.059 1123.48 139.199C1123.68 143.329 1125.4 145.389 1128.64 145.389C1131.17 145.389 1133.09 144.289 1134.4 142.089L1135.46 142.639C1133.04 148.229 1128.08 151.029 1120.6 151.029C1112.11 151.029 1107.51 147.499 1106.8 140.439H1106.5C1102.54 147.499 1095.66 151.029 1085.86 151.029ZM1092.84 145.669C1098.9 145.669 1103.4 142.649 1106.33 136.589V113.339C1097.43 114.079 1091.19 115.719 1087.6 118.299C1084.02 120.859 1082.22 125.169 1082.22 131.219C1082.22 135.809 1083.13 139.359 1084.95 141.879C1086.77 144.409 1089.4 145.669 1092.84 145.669Z" fill="#424242"/>
</svg>
