<svg width="729" height="323" viewBox="0 0 729 323" fill="none" xmlns="http://www.w3.org/2000/svg">
<path fill-rule="evenodd" clip-rule="evenodd" d="M279.37 155.209L279.41 121.799H263.39V154.849C268.68 155.629 274.07 155.779 279.37 155.209Z" fill="#57BED5"/>
<path fill-rule="evenodd" clip-rule="evenodd" d="M299.46 148.929V140.509L299.44 105.339L283.63 105.419V154.569C288.39 153.689 293.04 152.189 297.41 149.999C298.11 149.669 298.79 149.309 299.46 148.929Z" fill="#57BED5"/>
<path fill-rule="evenodd" clip-rule="evenodd" d="M319.66 126.979L319.64 85.0088L303.86 85.2488L303.67 146.289C310.73 141.319 316.03 134.689 319.66 126.979Z" fill="#57BED5"/>
<path fill-rule="evenodd" clip-rule="evenodd" d="M513.28 32.6887C492 11.6787 465.29 -0.371275 435.08 0.00872523C404.04 0.398725 381.3 14.1487 359.16 36.1387C369.47 49.0087 374.88 61.6787 377.23 76.9687C390.86 27.7287 448.99 21.0887 486.27 54.2987L513.28 32.6887Z" fill="#424242"/>
<path fill-rule="evenodd" clip-rule="evenodd" d="M216.88 136.359L193.18 161.209C215.14 185.049 243.47 198.899 275.82 198.489C306.84 198.099 329.56 184.369 351.68 162.409C340.32 144.459 336.7 133.669 334.41 118.589C321.45 174.169 253.91 178.909 216.88 136.359Z" fill="#424242"/>
<path fill-rule="evenodd" clip-rule="evenodd" d="M369.33 173.459C386.31 188.259 409.55 196.349 433.11 196.829C488.51 197.979 535.43 157.249 536.17 101.079C536.27 93.9787 535.61 86.7987 534.19 79.6387L466.73 118.029L500.92 114.979C493.04 159.839 438.65 173.979 403.34 154.109L369.33 173.459ZM383.71 136.349L356.11 158.439C341.51 135.309 341.22 127.879 337.3 93.3787C336.6 84.5587 334.51 76.9287 331.03 70.0587C316.16 40.6687 283.36 28.8687 251.89 38.8687C234.64 44.3487 227.92 52.7487 216.89 61.7687L192.42 38.3587C194.44 34.7987 204.82 25.7187 208.54 22.8287C248.79 -8.4513 310.73 -6.04131 346.57 30.7887C367.08 51.8587 372.8 69.9687 372.84 98.7087C372.87 114.049 376.98 126.579 383.71 136.349Z" fill="#959596"/>
<path fill-rule="evenodd" clip-rule="evenodd" d="M329.68 188.239L541.42 67.7588L545.95 75.9188L567.23 22.2488L512.91 29.0488L519.48 36.3788L329.68 188.239Z" fill="#57BED5"/>
<path fill-rule="evenodd" clip-rule="evenodd" d="M78.98 228.239H80.5C80.4 238.419 81.06 249.509 82.47 261.529L81.11 261.669C74.24 249.479 68.65 241.059 64.35 236.429C60.05 231.799 54.57 229.489 47.9 229.489C38.7 229.489 31.57 233.479 26.52 241.449C21.47 249.429 18.94 260.249 18.94 273.909C18.94 287.569 21.82 298.069 27.59 305.399C33.35 312.739 41.24 316.399 51.25 316.399C59.24 316.399 65.86 313.929 71.12 308.979C76.38 304.019 79.92 297.559 81.73 289.579L84.01 289.719C82.29 299.069 78.27 306.799 71.95 312.899C65.63 318.989 56.86 322.039 45.64 322.039C31.89 322.039 20.85 317.869 12.51 309.519C4.17001 301.169 0 289.799 0 275.419C0 261.019 4.37001 249.379 13.12 240.489C21.87 231.589 33.42 227.149 47.77 227.149C52.32 227.149 56.51 227.699 60.36 228.799C64.2 229.899 67.28 231.019 69.61 232.169C71.94 233.319 73.45 233.899 74.16 233.899C76.05 233.879 77.67 231.999 78.98 228.239Z" fill="#424242"/>
<path fill-rule="evenodd" clip-rule="evenodd" d="M148.13 274.309C148.13 287.879 150.71 298.839 155.87 307.179C161.03 315.519 168.61 319.699 178.62 319.699C186.81 319.699 192.34 317.839 195.23 314.129C198.11 310.419 199.55 304.929 199.55 297.689C199.55 291.179 198.77 286.709 197.2 284.279C195.63 281.859 192.17 280.089 186.81 278.989V277.619C199.85 278.169 212.84 278.169 225.78 277.619V278.989C221.84 279.819 219.08 281.559 217.51 284.209C215.94 286.869 215.16 291.319 215.16 297.549C215.16 306.809 215.31 314.649 215.61 321.069H213.94C212.52 318.779 211.31 317.209 210.3 316.389C209.29 315.569 208.07 315.149 206.66 315.149C205.45 315.149 203.65 315.719 201.28 316.869C198.9 318.019 195.72 319.159 191.72 320.309C187.73 321.459 183.2 322.029 178.15 322.029C162.38 322.029 150.27 317.719 141.83 309.109C133.39 300.489 129.17 289.249 129.17 275.409C129.17 260.919 133.8 249.249 143.05 240.399C152.3 231.549 164.35 227.129 179.22 227.129C184.07 227.129 188.55 227.679 192.64 228.779C196.73 229.879 200.02 230.999 202.49 232.149C204.97 233.299 206.66 233.879 207.57 233.879C209.49 233.879 211.06 231.999 212.27 228.239H213.94C213.84 238.329 214.45 249.149 215.76 260.699L214.4 260.839C207.73 249.189 202.01 241.049 197.27 236.429C192.51 231.799 186.55 229.489 179.38 229.489C169.67 229.489 162.04 233.479 156.48 241.449C150.91 249.419 148.13 260.379 148.13 274.309Z" fill="#424242"/>
<path fill-rule="evenodd" clip-rule="evenodd" d="M301.6 297.149C300.39 304.669 297.25 310.689 292.2 315.229C287.15 319.769 280.37 322.039 271.88 322.039C260.66 322.039 252.06 318.949 246.1 312.749C240.13 306.559 237.15 297.739 237.15 286.269C237.15 275.729 240.18 267.039 246.25 260.209C252.32 253.379 260.61 249.959 271.12 249.959C280.62 249.959 288.2 252.849 293.87 258.619C299.53 264.399 302.36 272.189 302.36 282.009V284.069H255.35V285.999C255.35 307.279 262.68 317.909 277.34 317.909C282.8 317.909 287.52 316.059 291.52 312.339C295.51 308.619 298.12 303.559 299.33 297.139H301.6V297.149ZM270.96 252.039C260.85 252.039 255.65 262.029 255.34 282.029H284.91C284.71 271.669 283.52 264.079 281.34 259.259C279.18 254.439 275.72 252.039 270.96 252.039Z" fill="#424242"/>
<path fill-rule="evenodd" clip-rule="evenodd" d="M364.83 248.329H365.89C365.69 256.489 366.05 264.369 366.96 271.979L365.89 272.119C361.04 264.599 357 259.339 353.76 256.369C350.53 253.389 346.53 251.899 341.78 251.899C337.44 251.899 333.97 252.999 331.39 255.199C328.81 257.399 327.52 260.199 327.52 263.589C327.52 265.339 327.87 266.919 328.58 268.339C329.29 269.759 330.07 270.889 330.93 271.709C331.79 272.529 333.18 273.359 335.1 274.179C337.02 274.999 338.56 275.599 339.72 275.969C340.88 276.339 342.73 276.889 345.26 277.619C354.26 280.189 360.67 282.959 364.52 285.939C368.36 288.919 370.28 293.389 370.28 299.349C370.28 306.499 367.63 312.069 362.32 316.059C357.01 320.049 350.41 322.039 342.53 322.039C338.18 322.039 333.84 321.349 329.49 319.979C325.14 318.599 322.72 317.919 322.21 317.919C321.91 317.919 321.6 317.949 321.3 317.989C321 318.039 320.69 318.149 320.39 318.339C320.09 318.519 319.86 318.679 319.71 318.819C319.56 318.959 319.36 319.189 319.1 319.509C318.85 319.829 318.67 320.059 318.57 320.199C318.47 320.339 318.29 320.609 318.04 321.029C317.79 321.439 317.61 321.689 317.51 321.779H316.45C316.45 314.259 315.84 306.419 314.63 298.259L315.84 297.979C320.9 306.229 325.34 311.939 329.19 315.099C333.03 318.269 337.53 319.849 342.69 319.849C347.54 319.849 351.41 318.659 354.29 316.269C357.17 313.889 358.61 310.679 358.61 306.639C358.61 302.699 357.17 299.809 354.29 297.979C351.41 296.149 346.63 294.359 339.96 292.619C331.27 290.239 325.07 287.429 321.38 284.219C317.69 281.009 315.84 276.519 315.84 270.749C315.84 264.329 318.34 259.259 323.35 255.549C328.35 251.829 334.6 249.979 342.08 249.979C345.72 249.979 349.46 250.529 353.3 251.639C357.14 252.739 359.36 253.289 359.97 253.289C361.08 253.289 361.97 252.919 362.62 252.189C363.29 251.439 364.03 250.159 364.83 248.329Z" fill="#424242"/>
<path fill-rule="evenodd" clip-rule="evenodd" d="M411.39 322.039C397.03 322.039 389.86 315.899 389.86 303.609C389.86 300.219 389.93 295.839 390.09 290.479C390.24 285.109 390.31 281.699 390.31 280.229L390.46 253.549H379.08V252.039C387.07 251.209 393.16 248.719 397.36 244.539C401.55 240.369 404.31 233.599 405.62 224.249H407.59L407.13 251.349H430.18V253.549H407.13C406.83 273.719 406.83 291.189 407.13 305.949C407.23 313.649 410.47 317.499 416.84 317.499C419.77 317.499 422.33 316.399 424.5 314.199C426.67 311.999 428.01 308.609 428.52 304.019H430.64C430.34 309.709 428.57 314.129 425.33 317.289C422.11 320.459 417.46 322.039 411.39 322.039Z" fill="#424242"/>
<path fill-rule="evenodd" clip-rule="evenodd" d="M438.23 320.809V319.709C442.17 318.889 444.8 317.619 446.11 315.929C447.43 314.229 448.18 311.139 448.38 306.639C448.58 298.569 448.69 291.789 448.69 286.289C448.69 281.979 448.58 275.699 448.38 267.449C448.18 262.859 447.4 259.489 446.03 257.339C444.66 255.189 442.06 253.509 438.22 252.329V251.229C447.32 251.509 456.47 251.509 465.67 251.229C466.28 251.229 466.53 251.599 466.43 252.329C465.62 259.109 465.22 270.439 465.22 286.299C465.22 295.929 465.32 302.759 465.52 306.789C465.72 311.289 466.48 314.359 467.79 315.999C469.1 317.659 471.73 318.889 475.68 319.719V320.819C463.25 320.349 450.77 320.349 438.23 320.809Z" fill="#424242"/>
<path fill-rule="evenodd" clip-rule="evenodd" d="M456.43 218.479C459.77 218.479 462.47 219.469 464.54 221.439C466.61 223.409 467.65 225.859 467.65 228.799C467.65 231.639 466.59 234.029 464.46 235.949C462.34 237.869 459.66 238.839 456.42 238.839C453.08 238.839 450.36 237.859 448.23 235.879C446.11 233.909 445.04 231.499 445.04 228.669C445.04 225.829 446.13 223.409 448.3 221.449C450.49 219.459 453.2 218.479 456.43 218.479Z" fill="#57BED5"/>
<path fill-rule="evenodd" clip-rule="evenodd" d="M519.97 322.039C508.55 322.039 499.91 318.719 494.04 312.069C488.17 305.419 485.25 296.779 485.25 286.139C485.25 275.879 488.46 267.279 494.88 260.349C501.3 253.419 509.92 249.959 520.74 249.959C532.17 249.959 540.78 253.239 546.6 259.799C552.41 266.359 555.32 274.949 555.32 285.589C555.32 295.859 552.14 304.499 545.77 311.519C539.38 318.529 530.79 322.039 519.97 322.039ZM503.44 285.729C503.44 297.559 504.78 306.219 507.46 311.719C510.14 317.219 514.36 319.969 520.12 319.969C531.34 319.969 536.96 308.649 536.96 285.999C536.96 274.269 535.64 265.669 533.01 260.219C530.38 254.769 526.24 252.029 520.57 252.029C509.15 252.039 503.44 263.269 503.44 285.729Z" fill="#424242"/>
<path fill-rule="evenodd" clip-rule="evenodd" d="M638.1 287.109C638.1 292.339 638.2 298.889 638.4 306.779C638.6 311.369 639.33 314.459 640.6 316.059C641.86 317.669 644.46 318.879 648.41 319.709V320.809C636.07 320.349 623.69 320.349 611.26 320.809V319.709C615.2 318.889 617.83 317.619 619.14 315.929C620.46 314.229 621.17 311.139 621.26 306.639C621.46 302.699 621.56 296.049 621.56 286.699C621.56 278.719 621.41 272.119 621.11 266.889C620.81 262.669 619.74 259.599 617.92 257.669C616.1 255.739 613.42 254.779 609.88 254.779C605.33 254.779 601.54 256.659 598.5 260.419C595.47 264.179 593.75 269.819 593.34 277.339C593.14 281.369 593.04 284.349 593.04 286.269C593.04 295.899 593.15 302.729 593.34 306.759C593.54 311.259 594.3 314.329 595.61 315.969C596.93 317.629 599.56 318.859 603.5 319.689V320.789C590.96 320.329 578.43 320.329 565.89 320.789V319.689C569.83 318.869 572.48 317.599 573.85 315.909C575.22 314.209 575.95 311.119 576.05 306.619C576.26 302.589 576.35 295.809 576.35 286.269C576.35 277.829 576.25 271.559 576.05 267.429C575.85 262.839 575.07 259.499 573.7 257.389C572.33 255.279 569.73 253.589 565.89 252.299V251.199C574.78 251.479 583.68 251.479 592.58 251.199C593.29 251.199 593.54 251.569 593.34 252.299C592.84 256.329 592.58 261.599 592.58 268.119H592.88C595.81 256.009 603.5 249.959 615.93 249.959C630.79 249.959 638.22 256.749 638.22 270.319C638.22 272.429 638.2 275.289 638.14 278.919C638.13 282.549 638.1 285.269 638.1 287.109Z" fill="#424242"/>
<path fill-rule="evenodd" clip-rule="evenodd" d="M679.05 322.039C672.78 322.039 667.65 320.519 663.66 317.499C659.67 314.469 657.67 310.069 657.67 304.299C657.67 297.329 661.38 292.059 668.82 288.479C676.25 284.899 686.49 282.889 699.53 282.429C699.53 281.149 699.53 279.289 699.53 276.859C699.53 274.429 699.53 272.229 699.53 270.259C699.53 268.289 699.53 266.429 699.53 264.689C699.23 256.339 694.88 252.169 686.49 252.169C682.55 252.169 679.21 252.859 676.48 254.229C673.75 255.609 672.39 257.249 672.39 259.179C672.39 260.559 673.32 262.119 675.19 263.859C677.06 265.599 678 267.439 678 269.359C678 271.559 677.14 273.369 675.42 274.799C673.7 276.219 671.57 276.929 669.05 276.929C666.22 276.929 663.97 276.129 662.3 274.519C660.63 272.909 659.8 270.789 659.8 268.129C659.8 263.169 662.58 258.919 668.14 255.339C673.7 251.759 680.58 249.969 688.76 249.969C697.76 249.969 704.66 251.739 709.46 255.259C714.27 258.789 716.67 263.949 716.67 270.739C716.67 273.399 716.62 276.859 716.52 281.119C716.42 285.379 716.37 288.619 716.37 290.809C716.17 298.609 716.27 305.069 716.67 310.209C716.87 314.339 718.59 316.399 721.83 316.399C724.36 316.399 726.28 315.299 727.59 313.099L728.65 313.649C726.23 319.239 721.27 322.039 713.79 322.039C705.3 322.039 700.7 318.509 699.99 311.449H699.69C695.73 318.509 688.85 322.039 679.05 322.039ZM686.03 316.679C692.09 316.679 696.59 313.659 699.52 307.599V284.349C690.62 285.089 684.38 286.729 680.79 289.309C677.21 291.869 675.41 296.179 675.41 302.229C675.41 306.819 676.32 310.369 678.14 312.889C679.96 315.419 682.59 316.679 686.03 316.679Z" fill="#424242"/>
</svg>
