<svg width="230" height="213" viewBox="0 0 230 213" fill="none" xmlns="http://www.w3.org/2000/svg">
<path d="M166.6 28.9099C180.6 28.8199 194.6 28.7199 208.6 28.6299C208.75 27.0399 209.48 17.9999 202.88 10.5399C201.8 9.31992 196.13 2.89992 187.38 2.87992C177.12 2.85992 169 11.6699 166.88 20.1899C165.99 23.7899 166.26 26.9299 166.6 28.9099Z" stroke="#727172" stroke-width="4" stroke-miterlimit="10"/>
<path d="M214.04 207.88H160.42C156.33 207.88 153.01 204.56 153.01 200.47V124.91C153.01 120.82 156.33 117.5 160.42 117.5H214.04C218.13 117.5 221.45 120.82 221.45 124.91V200.47C221.44 204.56 218.13 207.88 214.04 207.88Z" stroke="#727172" stroke-width="4" stroke-miterlimit="10"/>
<path d="M211.51 129.69H163.13V146.57H211.51V129.69Z" stroke="#727172" stroke-width="4" stroke-miterlimit="10"/>
<path d="M179.11 171.97H166.64C165.22 171.97 164.06 170.82 164.06 169.39V160.86C164.06 159.44 165.21 158.28 166.64 158.28H179.11C180.53 158.28 181.69 159.43 181.69 160.86V169.39C181.69 170.82 180.54 171.97 179.11 171.97Z" stroke="#727172" stroke-width="4" stroke-miterlimit="10"/>
<path d="M207.97 171.97H196.39C194.72 171.97 193.37 170.62 193.37 168.95V161.31C193.37 159.64 194.72 158.29 196.39 158.29H207.97C209.64 158.29 210.99 159.64 210.99 161.31V168.95C210.99 170.62 209.64 171.97 207.97 171.97Z" stroke="#727172" stroke-width="4" stroke-miterlimit="10"/>
<path d="M178.55 197.47H167.21C165.48 197.47 164.07 196.06 164.07 194.33V186.92C164.07 185.19 165.48 183.78 167.21 183.78H178.55C180.28 183.78 181.69 185.19 181.69 186.92V194.33C181.69 196.07 180.29 197.47 178.55 197.47Z" stroke="#727172" stroke-width="4" stroke-miterlimit="10"/>
<path d="M207.31 197.47H197.04C195.01 197.47 193.36 195.82 193.36 193.79V187.46C193.36 185.43 195.01 183.78 197.04 183.78H207.31C209.34 183.78 210.99 185.43 210.99 187.46V193.79C210.99 195.83 209.34 197.47 207.31 197.47Z" stroke="#727172" stroke-width="4" stroke-miterlimit="10"/>
<path d="M227.35 212.94H1.96999C0.879994 212.94 0 212.06 0 210.97V209.85C0 208.76 0.879994 207.88 1.96999 207.88H227.35C228.44 207.88 229.32 208.76 229.32 209.85V210.97C229.32 212.06 228.44 212.94 227.35 212.94Z" fill="#727172"/>
<path d="M166.6 28.9102V117.5" stroke="#727172" stroke-width="4" stroke-miterlimit="10"/>
<path d="M187.38 2.87988H38.6299C32.7099 5.22988 29.4899 8.36988 27.6299 10.8799C24.5099 13.9999 22.5199 18.1799 21.6299 23.3799C21.6299 76.8499 21.6299 130.32 21.6299 183.79C54.9599 183.79 88.2999 183.79 121.63 183.79C121.34 184.67 118.61 193.4 124.13 200.88C128.01 206.14 136.45 210.08 138.01 210.41" stroke="#727172" stroke-width="4" stroke-miterlimit="10"/>
<path d="M89.6299 24.3799H153.01" stroke="#727172" stroke-width="4" stroke-miterlimit="10"/>
<path d="M89.6299 44.8799H153.01" stroke="#727172" stroke-width="4" stroke-miterlimit="10"/>
<path d="M89.6299 62.8799H153.01" stroke="#727172" stroke-width="4" stroke-miterlimit="10"/>
<path d="M89.6299 81.8799H121.32" stroke="#727172" stroke-width="4" stroke-miterlimit="10"/>
<path d="M153.01 160.38H38.6298C36.7298 160.85 35.3598 162.49 35.2498 164.38C35.1298 166.44 36.5398 168.35 38.6298 168.88C76.7498 168.88 114.88 168.88 153.01 168.88" stroke="#727172" stroke-width="4" stroke-miterlimit="10"/>
<path d="M142.63 160.38V93.3799H126.63V158.29V160.38" stroke="#727172" stroke-width="4" stroke-miterlimit="10"/>
<path d="M114.66 160.38V108.88H98.6299V160.38" stroke="#727172" stroke-width="4" stroke-miterlimit="10"/>
<path d="M87.6299 158.29V134.63H71.6299V160.38" stroke="#727172" stroke-width="4" stroke-miterlimit="10"/>
<path d="M61.1299 160.38V121.88H43.6299V160.38" stroke="#727172" stroke-width="4" stroke-miterlimit="10"/>
<path d="M21.6299 183.79H4.12988C3.78988 185.65 2.94988 191.53 6.12988 197.88C9.28988 204.18 14.4299 207.03 16.1299 207.88" stroke="#727172" stroke-width="4" stroke-miterlimit="10"/>
<path d="M58.1299 43.8798C57.2399 37.6598 52.4599 33.3298 47.6299 33.3798C43.0899 33.4198 39.1899 36.9798 38.1699 41.0998C36.9699 45.9398 40.0499 50.2998 42.6299 52.3798C46.9899 55.8898 50.5999 53.4698 54.0499 56.8898C56.7899 59.6098 58.0099 64.6098 56.1299 68.8798C54.5699 72.4098 50.9199 75.5298 46.6299 75.3798C41.5799 75.1998 36.9399 70.5698 36.6299 64.3798" stroke="#727172" stroke-width="4" stroke-miterlimit="10"/>
<path d="M47.6299 33.3799L47.3799 26.8799" stroke="#727172" stroke-width="4" stroke-miterlimit="10"/>
<path d="M46.6299 75.3799V81.8799" stroke="#727172" stroke-width="4" stroke-miterlimit="10"/>
</svg>
