<svg width="203" height="205" viewBox="0 0 203 205" fill="none" xmlns="http://www.w3.org/2000/svg">
<path d="M50.1699 2.60986L29.6699 23.2498L2.55988 50.0598C2.04988 50.5698 2.40989 51.4398 3.12989 51.4398H50.1699V2.60986ZM50.1699 2.60986H141.67C142.16 2.60986 145.38 2.64985 147.55 5.24985C148.8 6.75985 149.09 8.39984 149.17 9.14984C149.17 44.7198 149.17 80.2899 149.17 115.86" stroke="#727172" stroke-width="4" stroke-miterlimit="10"/>
<path d="M77.3198 37.4697H127.82" stroke="#727172" stroke-width="4" stroke-miterlimit="10"/>
<path d="M77.3198 65.1602H127.82" stroke="#727172" stroke-width="4" stroke-miterlimit="10"/>
<path d="M25.3198 88.8198H127.82" stroke="#727172" stroke-width="4" stroke-miterlimit="10"/>
<path d="M25.3198 114.49H104.82" stroke="#727172" stroke-width="4" stroke-miterlimit="10"/>
<path d="M118.32 138.14H25.3198" stroke="#727172" stroke-width="4" stroke-miterlimit="10"/>
<path d="M25.3198 165.33H113.87" stroke="#727172" stroke-width="4" stroke-miterlimit="10"/>
<path d="M138.82 162.81L153.32 177.41L178.82 152.24" stroke="#727172" stroke-width="4" stroke-miterlimit="10"/>
<path d="M159.32 202.57C110.15 202.57 60.9898 202.57 11.8198 202.57C11.3198 202.67 7.91982 203.27 5.06982 200.93C3.05982 199.28 2.47982 197.13 2.31982 196.4V50.0596" stroke="#727172" stroke-width="4" stroke-miterlimit="10"/>
<path d="M157.01 202.43C181.134 202.43 200.69 182.744 200.69 158.46C200.69 134.176 181.134 114.49 157.01 114.49C132.886 114.49 113.33 134.176 113.33 158.46C113.33 182.744 132.886 202.43 157.01 202.43Z" stroke="#727172" stroke-width="4" stroke-miterlimit="10"/>
</svg>
